<?xml version="1.0" encoding="UTF-8" standalone="no"?>
<!-- Created with Inkscape (http://www.inkscape.org/) -->

<svg
   xmlns:dc="http://purl.org/dc/elements/1.1/"
   xmlns:cc="http://creativecommons.org/ns#"
   xmlns:rdf="http://www.w3.org/1999/02/22-rdf-syntax-ns#"
   xmlns:svg="http://www.w3.org/2000/svg"
   xmlns="http://www.w3.org/2000/svg"
   xmlns:sodipodi="http://sodipodi.sourceforge.net/DTD/sodipodi-0.dtd"
   xmlns:inkscape="http://www.inkscape.org/namespaces/inkscape"
   version="1.0"
   width="305.97128"
   height="348.46951"
   id="svg2403"
   xml:space="preserve"
   sodipodi:docname="hska.svg"
   inkscape:version="0.92.1 r15371"
   inkscape:export-filename="C:\Users\Johannes\workspace\uiLab\app\img\hska.png"
   inkscape:export-xdpi="137.73842"
   inkscape:export-ydpi="137.73842"><metadata
     id="metadata4576"><rdf:RDF><cc:Work
         rdf:about=""><dc:format>image/svg+xml</dc:format><dc:type
           rdf:resource="http://purl.org/dc/dcmitype/StillImage" /><dc:title></dc:title></cc:Work></rdf:RDF></metadata><sodipodi:namedview
     pagecolor="#ffffff"
     bordercolor="#666666"
     borderopacity="1"
     objecttolerance="10"
     gridtolerance="10"
     guidetolerance="10"
     inkscape:pageopacity="0"
     inkscape:pageshadow="2"
     inkscape:window-width="1920"
     inkscape:window-height="1017"
     id="namedview4574"
     showgrid="false"
     fit-margin-top="10"
     fit-margin-left="10"
     fit-margin-right="10"
     fit-margin-bottom="10"
     inkscape:zoom="1.0315011"
     inkscape:cx="-307.343"
     inkscape:cy="65.580435"
     inkscape:window-x="-8"
     inkscape:window-y="-8"
     inkscape:window-maximized="1"
     inkscape:current-layer="svg2403" /><defs
     id="defs2406"><clipPath
       id="clipPath2424"><path
         d="M 0,0 H 426 V 148 H 0 Z"
         id="path2426"
         inkscape:connector-curvature="0" /></clipPath><clipPath
       id="clipPath2446"><path
         d="M 0,0 H 425.197 V 147.015 H 0 Z"
         id="path2448"
         inkscape:connector-curvature="0" /></clipPath></defs><g
     id="g2428"
     transform="matrix(2.2342585,0,0,-2.2342585,10,338.46951)" /><g
     id="g2430"
     transform="matrix(2.2342585,0,0,-2.2342585,10,338.46951)"
     style="fill:#000080"><path
       d="m 28.42,40.058 -0.023,-0.063 0.826,-0.269 0.116,0.331 -0.919,10e-4"
       id="path2432"
       style="fill:#000080;fill-opacity:1;fill-rule:evenodd;stroke:none"
       inkscape:connector-curvature="0" /><path
       d="m 53.519,40.057 c 0.074,0 41.82901,0 41.82901,0 0,0.07 0.002,68.178 0.002,68.178 -6.478,-0.379 -21.83299,2.066 -31.757,13.493 C 63.382,119.982 53.514,40.06 53.519,40.057"
       id="path2434"
       style="fill:#000080;fill-opacity:1;fill-rule:evenodd;stroke:none"
       inkscape:connector-curvature="0" /><path
       d="m 29.339,40.057 c 0.112,0 23.309,-0.011 23.309,0 0.083,0.928 10.291,83.833 10.291,83.833 0.691,-0.806 8.52401,-11.633 24.957,-14.321 -10.55899,3.762 -22.077,14.206 -26.378,26.109 C 61.096,134.333 29.339,40.057 29.339,40.057"
       id="path2436"
       style="fill:#000080;fill-opacity:1;fill-rule:evenodd;stroke:none"
       inkscape:connector-curvature="0" /><path
       d="M 28.42,40.058 C 27.945,40.057 0,40.062 0,40.062 c 0.174,0.283 65.165,106.953 65.165,106.953 -0.067,-15.357 9.428,-24.708 10.176,-25.774 0.877,-0.75 5.759,-6.988 17.52401,-12.014 -2.934,0.573 -10.49801,1.626 -20.79601,12.028 -3.251,3.146 -8.537,9.574 -10.547,17.22 C 60.805,136.429 28.42,40.058 28.42,40.058"
       id="path2438"
       style="fill:#000080;fill-opacity:1;fill-rule:evenodd;stroke:none"
       inkscape:connector-curvature="0" /><path
       d="m 52.65,40.057 0.868,-0.001 -0.043,-0.399 -0.869,0.039 0.044,0.361"
       id="path2440"
       style="fill:#000080;fill-opacity:1;fill-rule:evenodd;stroke:none"
       inkscape:connector-curvature="0" /></g><g
     id="g2442"
     transform="matrix(2.2342585,0,0,-2.2342585,10,338.46951)"
     style="fill:none;stroke:#000080;stroke-width:1.691625;stroke-miterlimit:4;stroke-dasharray:none;stroke-opacity:1"><g
       clip-path="url(#clipPath2446)"
       id="g2444"
       style="fill:none;stroke:#000080;stroke-width:1.691625;stroke-miterlimit:4;stroke-dasharray:none;stroke-opacity:1"><path
         d="M 94.94601,107.932 112.69,42.21 21.653,18.704 28.828,39.911 M 94.96301,108.021 126.871,47.161 48.241,0.8240001 53.047,39.729"
         id="path2450"
         style="fill:none;stroke:#000080;stroke-width:1.691625;stroke-linecap:butt;stroke-linejoin:miter;stroke-miterlimit:4;stroke-dasharray:none;stroke-opacity:1"
         inkscape:connector-curvature="0" /></g></g></svg>