<?xml version="1.0" encoding="UTF-8" standalone="no"?>
<!-- Created with Inkscape (http://www.inkscape.org/) -->

<svg
   xmlns:dc="http://purl.org/dc/elements/1.1/"
   xmlns:cc="http://creativecommons.org/ns#"
   xmlns:rdf="http://www.w3.org/1999/02/22-rdf-syntax-ns#"
   xmlns:svg="http://www.w3.org/2000/svg"
   xmlns="http://www.w3.org/2000/svg"
   xmlns:xlink="http://www.w3.org/1999/xlink"
   xmlns:sodipodi="http://sodipodi.sourceforge.net/DTD/sodipodi-0.dtd"
   xmlns:inkscape="http://www.inkscape.org/namespaces/inkscape"
   width="1000"
   height="1000"
   viewBox="0 0 264.58333 264.58334"
   version="1.1"
   id="svg8"
   inkscape:version="0.92.1 r15371"
   sodipodi:docname="STApp.svg">
  <defs
     id="defs2">
    <marker
       inkscape:stockid="Arrow2Sstart"
       orient="auto"
       refY="0.0"
       refX="0.0"
       id="Arrow2Sstart"
       style="overflow:visible"
       inkscape:isstock="true">
      <path
         id="path4582"
         style="fill-rule:evenodd;stroke-width:0.625;stroke-linejoin:round;stroke:#ffffff;stroke-opacity:1;fill:#ffffff;fill-opacity:1"
         d="M 8.7185878,4.0337352 L -2.2072895,0.016013256 L 8.7185884,-4.0017078 C 6.9730900,-1.6296469 6.9831476,1.6157441 8.7185878,4.0337352 z "
         transform="scale(0.3) translate(-2.3,0)" />
    </marker>
    <marker
       inkscape:stockid="Arrow2Mstart"
       orient="auto"
       refY="0.0"
       refX="0.0"
       id="marker4862"
       style="overflow:visible"
       inkscape:isstock="true">
      <path
         id="path4860"
         style="fill-rule:evenodd;stroke-width:0.625;stroke-linejoin:round;stroke:#ffffff;stroke-opacity:1;fill:#ffffff;fill-opacity:1"
         d="M 8.7185878,4.0337352 L -2.2072895,0.016013256 L 8.7185884,-4.0017078 C 6.9730900,-1.6296469 6.9831476,1.6157441 8.7185878,4.0337352 z "
         transform="scale(0.6) translate(0,0)" />
    </marker>
    <marker
       inkscape:stockid="Arrow1Sstart"
       orient="auto"
       refY="0.0"
       refX="0.0"
       id="Arrow1Sstart"
       style="overflow:visible"
       inkscape:isstock="true">
      <path
         id="path4564"
         d="M 0.0,0.0 L 5.0,-5.0 L -12.5,0.0 L 5.0,5.0 L 0.0,0.0 z "
         style="fill-rule:evenodd;stroke:#ffffff;stroke-width:1pt;stroke-opacity:1;fill:#ffffff;fill-opacity:1"
         transform="scale(0.2) translate(6,0)" />
    </marker>
    <marker
       inkscape:stockid="Arrow2Mstart"
       orient="auto"
       refY="0.0"
       refX="0.0"
       id="Arrow2Mstart"
       style="overflow:visible"
       inkscape:isstock="true">
      <path
         id="path4576"
         style="fill-rule:evenodd;stroke-width:0.625;stroke-linejoin:round;stroke:#ffffff;stroke-opacity:1;fill:#ffffff;fill-opacity:1"
         d="M 8.7185878,4.0337352 L -2.2072895,0.016013256 L 8.7185884,-4.0017078 C 6.9730900,-1.6296469 6.9831476,1.6157441 8.7185878,4.0337352 z "
         transform="scale(0.6) translate(0,0)" />
    </marker>
    <linearGradient
       inkscape:collect="always"
       id="linearGradient4491">
      <stop
         style="stop-color:#00006d;stop-opacity:1"
         offset="0"
         id="stop4487" />
      <stop
         style="stop-color:#0016d9;stop-opacity:1"
         offset="1"
         id="stop4489" />
    </linearGradient>
    <linearGradient
       inkscape:collect="always"
       xlink:href="#linearGradient4491"
       id="linearGradient4493"
       x1="112.6369"
       y1="281.12497"
       x2="181.16412"
       y2="49.342125"
       gradientUnits="userSpaceOnUse" />
    <filter
       inkscape:collect="always"
       style="color-interpolation-filters:sRGB"
       id="filter5428"
       x="-0.084"
       width="1.168"
       y="-0.084"
       height="1.168">
      <feGaussianBlur
         inkscape:collect="always"
         stdDeviation="3.1410372"
         id="feGaussianBlur5430" />
    </filter>
  </defs>
  <sodipodi:namedview
     id="base"
     pagecolor="#ffffff"
     bordercolor="#666666"
     borderopacity="1.0"
     inkscape:pageopacity="0.0"
     inkscape:pageshadow="2"
     inkscape:zoom="0.35"
     inkscape:cx="187.49561"
     inkscape:cy="536.34632"
     inkscape:document-units="mm"
     inkscape:current-layer="layer1"
     showgrid="false"
     units="px"
     borderlayer="true"
     inkscape:pagecheckerboard="true"
     inkscape:window-width="1920"
     inkscape:window-height="1017"
     inkscape:window-x="-8"
     inkscape:window-y="-8"
     inkscape:window-maximized="1" />
  <metadata
     id="metadata5">
    <rdf:RDF>
      <cc:Work
         rdf:about="">
        <dc:format>image/svg+xml</dc:format>
        <dc:type
           rdf:resource="http://purl.org/dc/dcmitype/StillImage" />
        <dc:title></dc:title>
      </cc:Work>
    </rdf:RDF>
  </metadata>
  <g
     inkscape:label="Layer 1"
     inkscape:groupmode="layer"
     id="layer1"
     transform="translate(0,-32.41665)">
    <rect
       style="opacity:0.81400003;fill:url(#linearGradient4493);fill-opacity:1;fill-rule:nonzero;stroke:none;stroke-width:2;stroke-linecap:round;stroke-linejoin:round;stroke-miterlimit:4;stroke-dasharray:none;stroke-dashoffset:0;stroke-opacity:1"
       id="rect4485"
       width="264.58334"
       height="264.58334"
       x="0"
       y="32.416641" />
    <g
       id="g5278"
       style="opacity:0.77;filter:url(#filter5428)"
       transform="translate(-66.223991,-234.05441)">
      <path
         sodipodi:nodetypes="ccccccssssssssc"
         inkscape:connector-curvature="0"
         id="rect4509-4"
         d="m 236.23121,366.94341 h -27.532 v 21.785 h -24.42883 v 18.22783 h -26.55194 v -45.44878 c 0,-5.21903 4.2016,-9.42063 9.42063,-9.42063 h 70.90266 c 5.21903,0 9.42063,4.2016 9.42063,9.42063 v 70.90266 c 0,5.21903 -4.2016,9.42063 -9.42063,9.42063 h -70.90266 c -5.21903,0 -9.42063,-4.2016 -9.42063,-9.42063 v -15.0784"
         style="opacity:1;fill:none;fill-opacity:1;fill-rule:nonzero;stroke:#000000;stroke-width:4;stroke-linecap:round;stroke-linejoin:round;stroke-miterlimit:4;stroke-dasharray:none;stroke-dashoffset:0;stroke-opacity:1" />
      <g
         transform="translate(290.09188,280.82043)"
         id="text5096-3"
         style="font-style:normal;font-weight:normal;font-size:19.7555542px;line-height:1.25;font-family:sans-serif;letter-spacing:0px;word-spacing:0px;fill:#000000;fill-opacity:1;stroke:none;stroke-width:0.26458332;stroke-opacity:1"
         aria-label="STApp">
        <path
           id="path5140-8"
           style="font-style:normal;font-variant:normal;font-weight:normal;font-stretch:normal;font-size:25.39999962px;font-family:Ubuntu;-inkscape-font-specification:Ubuntu;fill:#000000;fill-opacity:1;stroke:none;stroke-width:0.26458332;stroke-opacity:1"
           d="m -117.77128,148.95049 q 1.7272,0 2.5146,-0.5842 0.7874,-0.5842 0.7874,-1.651 0,-0.635 -0.2794,-1.0922 -0.254,-0.4572 -0.762,-0.8128 -0.4826,-0.381 -1.1938,-0.6858 -0.7112,-0.3302 -1.6256,-0.635 -0.9144,-0.3302 -1.778,-0.7112 -0.8382,-0.4064 -1.4986,-0.9906 -0.635,-0.5842 -1.0414,-1.397 -0.381,-0.8128 -0.381,-1.9558 0,-2.3876 1.651,-3.7338 1.651,-1.3716 4.4958,-1.3716 1.651,0 2.921,0.381 1.2954,0.3556 2.032,0.7874 l -0.9906,2.5908 q -0.8636,-0.4826 -1.905,-0.7366 -1.016,-0.254 -2.1082,-0.254 -1.2954,0 -2.032,0.5334 -0.7112,0.5334 -0.7112,1.4986 0,0.5842 0.2286,1.016 0.254,0.4064 0.6858,0.7366 0.4572,0.3302 1.0414,0.6096 0.6096,0.2794 1.3208,0.5334 1.2446,0.4572 2.2098,0.9398 0.9906,0.4572 1.651,1.1176 0.6858,0.635 1.0414,1.524 0.3556,0.8636 0.3556,2.1082 0,2.3876 -1.7018,3.7084 -1.6764,1.2954 -4.9276,1.2954 -1.0922,0 -2.0066,-0.1524 -0.889,-0.127 -1.6002,-0.3302 -0.6858,-0.2032 -1.1938,-0.4064 -0.508,-0.2286 -0.8128,-0.4064 l 0.9398,-2.6162 q 0.6858,0.381 1.8542,0.762 1.1684,0.381 2.8194,0.381 z"
           inkscape:connector-curvature="0" />
        <path
           id="path5142-3"
           style="font-style:normal;font-variant:normal;font-weight:normal;font-stretch:normal;font-size:25.39999962px;font-family:Ubuntu;-inkscape-font-specification:Ubuntu;fill:#000000;fill-opacity:1;stroke:none;stroke-width:0.26458332;stroke-opacity:1"
           d="m -96.078096,133.73589 v 2.7686 h -5.410204 v 14.8336 h -3.2258 v -14.8336 h -5.4102 v -2.7686 z"
           inkscape:connector-curvature="0" />
        <path
           id="path5144-3"
           style="font-style:normal;font-variant:normal;font-weight:normal;font-stretch:normal;font-size:25.39999962px;font-family:Ubuntu;-inkscape-font-specification:Ubuntu;fill:#000000;fill-opacity:1;stroke:none;stroke-width:0.26458332;stroke-opacity:1"
           d="m -83.416594,151.33809 q -0.3556,-1.0414 -0.7366,-2.0574 -0.381,-1.016 -0.7366,-2.0828 h -7.4168 q -0.3556,1.0668 -0.7366,2.1082 -0.3556,1.016 -0.7112,2.032 h -3.3274 q 0.9906,-2.8194 1.8796,-5.207 0.889,-2.3876 1.7272,-4.5212 0.8636,-2.1336 1.7018,-4.064 0.8382,-1.9304 1.7272,-3.81 h 3.0226 q 0.889,1.8796 1.7272,3.81 0.8382,1.9304 1.6764,4.064 0.8636,2.1336 1.7526,4.5212 0.9144,2.3876 1.905,5.207 z m -5.1816,-14.1986 q -0.5842,1.3462 -1.3462,3.2766 -0.7366,1.9304 -1.5494,4.191 h 5.7912 q -0.8128,-2.2606 -1.5748,-4.2164 -0.762,-1.9558 -1.3208,-3.2512 z"
           inkscape:connector-curvature="0" />
        <path
           id="path5146-9"
           style="font-style:normal;font-variant:normal;font-weight:normal;font-stretch:normal;font-size:25.39999962px;font-family:Ubuntu;-inkscape-font-specification:Ubuntu;fill:#000000;fill-opacity:1;stroke:none;stroke-width:0.26458332;stroke-opacity:1"
           d="m -69.075913,144.75949 q 0,-2.0574 -0.9398,-3.2004 -0.9144,-1.143 -2.971799,-1.143 -0.4318,0 -0.9144,0.0508 -0.4572,0.0254 -0.9144,0.1524 v 7.5946 q 0.4064,0.2794 1.0668,0.5334 0.6858,0.2286 1.447799,0.2286 1.6764,0 2.4384,-1.143 0.7874,-1.143 0.7874,-3.0734 z m 3.1496,-0.0508 q 0,1.524 -0.4064,2.794 -0.381,1.27 -1.1176,2.1844 -0.7366,0.9144 -1.8542,1.4224 -1.0922,0.508 -2.4892,0.508 -0.939799,0 -1.727199,-0.2286 -0.7874,-0.2286 -1.2954,-0.508 v 5.1562 h -3.0734 v -17.5514 q 0.9398,-0.254 2.3114,-0.4826 1.3716,-0.2286 2.8956,-0.2286 1.574799,0 2.819399,0.4826 1.2446,0.4826 2.1082,1.397 0.889,0.889 1.3462,2.1844 0.4826,1.27 0.4826,2.8702 z"
           inkscape:connector-curvature="0" />
        <path
           id="path5148-5"
           style="font-style:normal;font-variant:normal;font-weight:normal;font-stretch:normal;font-size:25.39999962px;font-family:Ubuntu;-inkscape-font-specification:Ubuntu;fill:#000000;fill-opacity:1;stroke:none;stroke-width:0.26458332;stroke-opacity:1"
           d="m -53.945053,144.75949 q 0,-2.0574 -0.9398,-3.2004 -0.9144,-1.143 -2.9718,-1.143 -0.4318,0 -0.9144,0.0508 -0.4572,0.0254 -0.9144,0.1524 v 7.5946 q 0.4064,0.2794 1.0668,0.5334 0.6858,0.2286 1.4478,0.2286 1.6764,0 2.4384,-1.143 0.7874,-1.143 0.7874,-3.0734 z m 3.1496,-0.0508 q 0,1.524 -0.4064,2.794 -0.381,1.27 -1.1176,2.1844 -0.7366,0.9144 -1.8542,1.4224 -1.0922,0.508 -2.4892,0.508 -0.9398,0 -1.7272,-0.2286 -0.7874,-0.2286 -1.2954,-0.508 v 5.1562 h -3.0734 v -17.5514 q 0.9398,-0.254 2.3114,-0.4826 1.3716,-0.2286 2.8956,-0.2286 1.5748,0 2.8194,0.4826 1.2446,0.4826 2.1082,1.397 0.889,0.889 1.3462,2.1844 0.4826,1.27 0.4826,2.8702 z"
           inkscape:connector-curvature="0" />
      </g>
    </g>
    <flowRoot
       xml:space="preserve"
       id="flowRoot4495"
       style="font-style:normal;font-weight:normal;font-size:74.66666412px;line-height:1;font-family:sans-serif;letter-spacing:0px;word-spacing:0px;fill:#000000;fill-opacity:1;stroke:none"
       transform="matrix(0.26458333,0,0,0.26458333,-23.434524,11.47677)"><flowRegion
         id="flowRegion4497"
         style="line-height:1"><rect
           id="rect4499"
           width="954.28564"
           height="422.85712"
           x="114.28571"
           y="780"
           style="line-height:1" /></flowRegion><flowPara
         id="flowPara4501"
         style="font-style:normal;font-variant:normal;font-weight:normal;font-stretch:normal;font-size:133.33332825px;line-height:1;font-family:'Atlantis the lost City';-inkscape-font-specification:'Atlantis the lost City';text-align:center;text-anchor:middle;fill:#ffffff">always one</flowPara><flowPara
         style="font-style:normal;font-variant:normal;font-weight:normal;font-stretch:normal;font-size:133.33332825px;line-height:1;font-family:'Atlantis the lost City';-inkscape-font-specification:'Atlantis the lost City';text-align:center;letter-spacing:3px;text-anchor:middle;fill:#ffffff"
         id="flowPara4503">step ahead</flowPara></flowRoot>    <text
       xml:space="preserve"
       style="font-style:normal;font-weight:normal;font-size:19.7555542px;line-height:1.25;font-family:sans-serif;letter-spacing:0px;word-spacing:0px;fill:#000000;fill-opacity:1;stroke:none;stroke-width:0.26458332"
       x="77.333931"
       y="79.588066"
       id="text4507"><tspan
         sodipodi:role="line"
         id="tspan4505"
         x="77.333931"
         y="79.588066"
         style="font-style:normal;font-variant:normal;font-weight:bold;font-stretch:normal;font-size:50.79999924px;font-family:'Atlantis the lost City';-inkscape-font-specification:'Atlantis the lost City Bold';fill:#ffffff;stroke-width:0.26458332">STApp</tspan></text>
    <g
       id="g5190"
       transform="translate(-13.795943,-11.759859)">
      <path
         sodipodi:nodetypes="ccccccssssssssc"
         inkscape:connector-curvature="0"
         id="rect4509"
         d="m 181.15733,142.53218 h -27.532 v 21.785 H 129.1965 v 18.22783 h -26.55194 v -45.44878 c 0,-5.21903 4.2016,-9.42063 9.42063,-9.42063 h 70.90266 c 5.21903,0 9.42063,4.2016 9.42063,9.42063 v 70.90266 c 0,5.21903 -4.2016,9.42063 -9.42063,9.42063 h -70.90266 c -5.21903,0 -9.42063,-4.2016 -9.42063,-9.42063 v -15.0784"
         style="opacity:1;fill:none;fill-opacity:1;fill-rule:nonzero;stroke:#ffffff;stroke-width:4;stroke-linecap:round;stroke-linejoin:round;stroke-miterlimit:4;stroke-dasharray:none;stroke-dashoffset:0;stroke-opacity:1" />
      <g
         transform="translate(235.018,56.4092)"
         id="text5096"
         style="font-style:normal;font-weight:normal;font-size:19.7555542px;line-height:1.25;font-family:sans-serif;letter-spacing:0px;word-spacing:0px;fill:#ffffff;fill-opacity:1;stroke:none;stroke-width:0.26458332;stroke-opacity:1"
         aria-label="STApp">
        <path
           id="path5140"
           style="font-style:normal;font-variant:normal;font-weight:normal;font-stretch:normal;font-size:25.39999962px;font-family:Ubuntu;-inkscape-font-specification:Ubuntu;fill:#ffffff;fill-opacity:1;stroke:none;stroke-width:0.26458332;stroke-opacity:1"
           d="m -117.77128,148.95049 q 1.7272,0 2.5146,-0.5842 0.7874,-0.5842 0.7874,-1.651 0,-0.635 -0.2794,-1.0922 -0.254,-0.4572 -0.762,-0.8128 -0.4826,-0.381 -1.1938,-0.6858 -0.7112,-0.3302 -1.6256,-0.635 -0.9144,-0.3302 -1.778,-0.7112 -0.8382,-0.4064 -1.4986,-0.9906 -0.635,-0.5842 -1.0414,-1.397 -0.381,-0.8128 -0.381,-1.9558 0,-2.3876 1.651,-3.7338 1.651,-1.3716 4.4958,-1.3716 1.651,0 2.921,0.381 1.2954,0.3556 2.032,0.7874 l -0.9906,2.5908 q -0.8636,-0.4826 -1.905,-0.7366 -1.016,-0.254 -2.1082,-0.254 -1.2954,0 -2.032,0.5334 -0.7112,0.5334 -0.7112,1.4986 0,0.5842 0.2286,1.016 0.254,0.4064 0.6858,0.7366 0.4572,0.3302 1.0414,0.6096 0.6096,0.2794 1.3208,0.5334 1.2446,0.4572 2.2098,0.9398 0.9906,0.4572 1.651,1.1176 0.6858,0.635 1.0414,1.524 0.3556,0.8636 0.3556,2.1082 0,2.3876 -1.7018,3.7084 -1.6764,1.2954 -4.9276,1.2954 -1.0922,0 -2.0066,-0.1524 -0.889,-0.127 -1.6002,-0.3302 -0.6858,-0.2032 -1.1938,-0.4064 -0.508,-0.2286 -0.8128,-0.4064 l 0.9398,-2.6162 q 0.6858,0.381 1.8542,0.762 1.1684,0.381 2.8194,0.381 z"
           inkscape:connector-curvature="0" />
        <path
           id="path5142"
           style="font-style:normal;font-variant:normal;font-weight:normal;font-stretch:normal;font-size:25.39999962px;font-family:Ubuntu;-inkscape-font-specification:Ubuntu;fill:#ffffff;fill-opacity:1;stroke:none;stroke-width:0.26458332;stroke-opacity:1"
           d="m -96.078096,133.73589 v 2.7686 h -5.410204 v 14.8336 h -3.2258 v -14.8336 h -5.4102 v -2.7686 z"
           inkscape:connector-curvature="0" />
        <path
           id="path5144"
           style="font-style:normal;font-variant:normal;font-weight:normal;font-stretch:normal;font-size:25.39999962px;font-family:Ubuntu;-inkscape-font-specification:Ubuntu;fill:#ffffff;fill-opacity:1;stroke:none;stroke-width:0.26458332;stroke-opacity:1"
           d="m -83.416594,151.33809 q -0.3556,-1.0414 -0.7366,-2.0574 -0.381,-1.016 -0.7366,-2.0828 h -7.4168 q -0.3556,1.0668 -0.7366,2.1082 -0.3556,1.016 -0.7112,2.032 h -3.3274 q 0.9906,-2.8194 1.8796,-5.207 0.889,-2.3876 1.7272,-4.5212 0.8636,-2.1336 1.7018,-4.064 0.8382,-1.9304 1.7272,-3.81 h 3.0226 q 0.889,1.8796 1.7272,3.81 0.8382,1.9304 1.6764,4.064 0.8636,2.1336 1.7526,4.5212 0.9144,2.3876 1.905,5.207 z m -5.1816,-14.1986 q -0.5842,1.3462 -1.3462,3.2766 -0.7366,1.9304 -1.5494,4.191 h 5.7912 q -0.8128,-2.2606 -1.5748,-4.2164 -0.762,-1.9558 -1.3208,-3.2512 z"
           inkscape:connector-curvature="0" />
        <path
           id="path5146"
           style="font-style:normal;font-variant:normal;font-weight:normal;font-stretch:normal;font-size:25.39999962px;font-family:Ubuntu;-inkscape-font-specification:Ubuntu;fill:#ffffff;fill-opacity:1;stroke:none;stroke-width:0.26458332;stroke-opacity:1"
           d="m -69.075913,144.75949 q 0,-2.0574 -0.9398,-3.2004 -0.9144,-1.143 -2.971799,-1.143 -0.4318,0 -0.9144,0.0508 -0.4572,0.0254 -0.9144,0.1524 v 7.5946 q 0.4064,0.2794 1.0668,0.5334 0.6858,0.2286 1.447799,0.2286 1.6764,0 2.4384,-1.143 0.7874,-1.143 0.7874,-3.0734 z m 3.1496,-0.0508 q 0,1.524 -0.4064,2.794 -0.381,1.27 -1.1176,2.1844 -0.7366,0.9144 -1.8542,1.4224 -1.0922,0.508 -2.4892,0.508 -0.939799,0 -1.727199,-0.2286 -0.7874,-0.2286 -1.2954,-0.508 v 5.1562 h -3.0734 v -17.5514 q 0.9398,-0.254 2.3114,-0.4826 1.3716,-0.2286 2.8956,-0.2286 1.574799,0 2.819399,0.4826 1.2446,0.4826 2.1082,1.397 0.889,0.889 1.3462,2.1844 0.4826,1.27 0.4826,2.8702 z"
           inkscape:connector-curvature="0" />
        <path
           id="path5148"
           style="font-style:normal;font-variant:normal;font-weight:normal;font-stretch:normal;font-size:25.39999962px;font-family:Ubuntu;-inkscape-font-specification:Ubuntu;fill:#ffffff;fill-opacity:1;stroke:none;stroke-width:0.26458332;stroke-opacity:1"
           d="m -53.945053,144.75949 q 0,-2.0574 -0.9398,-3.2004 -0.9144,-1.143 -2.9718,-1.143 -0.4318,0 -0.9144,0.0508 -0.4572,0.0254 -0.9144,0.1524 v 7.5946 q 0.4064,0.2794 1.0668,0.5334 0.6858,0.2286 1.4478,0.2286 1.6764,0 2.4384,-1.143 0.7874,-1.143 0.7874,-3.0734 z m 3.1496,-0.0508 q 0,1.524 -0.4064,2.794 -0.381,1.27 -1.1176,2.1844 -0.7366,0.9144 -1.8542,1.4224 -1.0922,0.508 -2.4892,0.508 -0.9398,0 -1.7272,-0.2286 -0.7874,-0.2286 -1.2954,-0.508 v 5.1562 h -3.0734 v -17.5514 q 0.9398,-0.254 2.3114,-0.4826 1.3716,-0.2286 2.8956,-0.2286 1.5748,0 2.8194,0.4826 1.2446,0.4826 2.1082,1.397 0.889,0.889 1.3462,2.1844 0.4826,1.27 0.4826,2.8702 z"
           inkscape:connector-curvature="0" />
      </g>
    </g>
  </g>
</svg>
